<?xml version="1.0" encoding="UTF-8"?> <svg xmlns="http://www.w3.org/2000/svg" xmlns:xlink="http://www.w3.org/1999/xlink" width="880px" height="280px" viewBox="0 0 880 280"> <!-- Generator: Sketch 48.2 (47327) - http://www.bohemiancoding.com/sketch --> <title>more-colorized-large</title> <desc>Created with Sketch.</desc> <defs> <linearGradient x1="50.4902742%" y1="50%" x2="50.0119579%" y2="50%" id="linearGradient-1"> <stop stop-color="#1EC8DC" offset="0%"></stop> <stop stop-color="#FFFF00" offset="100%"></stop> </linearGradient> <linearGradient x1="-1.11022302e-14%" y1="50%" x2="100%" y2="50%" id="linearGradient-2"> <stop stop-color="#1EC8DC" offset="0%"></stop> <stop stop-color="#E23591" offset="100%"></stop> </linearGradient> <linearGradient x1="50.4683514%" y1="50%" x2="50.4105548%" y2="50%" id="linearGradient-3"> <stop stop-color="#1EC8DC" offset="0%"></stop> <stop stop-color="#FFFF00" offset="100%"></stop> </linearGradient> <linearGradient x1="50%" y1="-2.48949813e-15%" x2="50%" y2="100%" id="linearGradient-4"> <stop stop-color="#1EC8DC" offset="0%"></stop> <stop stop-color="#E23591" offset="100%"></stop> </linearGradient> <linearGradient x1="1.57047194%" y1="50%" x2="100%" y2="50%" id="linearGradient-5"> <stop stop-color="#1EC8DC" offset="0%"></stop> <stop stop-color="#E23591" offset="100%"></stop> </linearGradient> </defs> <g id="Page-1" stroke="none" stroke-width="1" fill="none" fill-rule="evenodd"> <g id="more-colorized-large"> <g id="soundreply-copy" transform="translate(41.000000, 79.000000)"> <path d="M135.786885,96.1239002 C130.978118,100.04132 124.814245,102 117.295082,102 C112.224018,102 106.956311,101.095994 101.491803,99.2879539 C96.0272951,97.4799142 91.1967423,94.9400869 87,91.6683959 L94.0819672,80.4327765 C102.213155,86.4595757 110.081929,89.4729301 117.688525,89.4729301 C121.010946,89.4729301 123.63387,88.7195915 125.557377,87.2128917 C127.480884,85.7061919 128.442623,83.7905595 128.442623,81.4659369 C128.442623,78.0220517 123.80879,74.9226015 114.540984,72.1674933 C113.841527,71.9092019 113.316942,71.7370102 112.967213,71.6509131 C112.967213,71.6509131 120.748623,59.3390814 122.934426,60.0278585 C125.12023,60.7166355 127.240427,61.4914981 129.295082,62.3524694 C131.349737,63.2134407 133.557365,64.4187825 135.918033,65.9685308 C140.639368,69.0680275 143,73.8893946 143,80.4327765 C143,86.9761585 140.595652,92.2064807 135.786885,96.1239002 Z" id="soundreply-copy-3" fill="#FFFF00"></path> <path d="M191.435075,102 C180.987902,102 172.282054,98.518283 165.317272,91.5547445 C161.762572,88.0006793 188.894918,95.586276 205.808523,88.7617741 C222.034022,82.2149172 228,66 228,66 C228,66 227.679064,78.3165186 220.012163,88.7617741 C212.345262,99.2070296 201.882249,102 191.435075,102 Z" id="soundreply-copy-3" fill="url(#linearGradient-1)"></path> <path d="M308,69.010592 C308,69.423556 308,100.952717 308,100.952717 L293.371429,100.952717 L293.371429,88.2544134 C291.020396,92.5308395 287.776891,95.8908382 283.640816,98.3345102 C279.504741,100.778182 275.042201,102 270.253061,102 C262.416287,102 256.081657,99.6000009 251.24898,94.7999308 C246.416302,89.9998607 244,83.0616816 244,73.9851853 L258.628571,69.5342334 C258.628571,82.3635118 263.940083,88.7780547 274.563265,88.7780547 C279.613631,88.7780547 284.010866,87.0980554 287.755102,83.7380063 C291.499338,80.3779572 308,68.5976281 308,69.010592 Z" id="soundreply-copy-3" fill="url(#linearGradient-2)"></path> <path d="M343.652253,101 L329.030698,101 C329.030698,101 327.635769,63.8131708 343.652253,45.2294678 C354.259593,32.9219183 383.830008,35.8237456 385.754497,37.7295097 C390.584857,42.5128697 393,49.4268953 393,58.4717942 L393,101 L378.378445,101 C378.378445,101 385.629123,51.95122 376.909098,46.7426666 C342.182906,26.0003822 343.652253,62.9507361 343.652253,62.9507361 C343.652253,50.1661195 343.652253,101 343.652253,101 Z" id="soundreply-copy-3" fill="#FFFF00"></path> <path d="M418.557644,92.0509091 C412.007253,85.4181487 465.327199,111.818182 465.327199,52.9090909 L465.327199,30 L480,30 L480,100.952727 L465.327199,100.952727 L465.327199,90.48 C459.912209,98.1600384 452.00819,102 441.614903,102 C432.793711,102 425.108035,98.6836695 418.557644,92.0509091 Z" id="soundreply-copy-3" fill="url(#linearGradient-3)"></path> <path d="M519,47 C519,47 511.610442,50.779089 511.610442,62.522316 L511.610442,101 L503,101 L503,55.1638635 C503,55.1638635 519,47 519,47 Z" id="soundreply-copy-3" fill="#FFFF00"></path> <path d="M684,94.5906949 C684,94.4597757 676.327232,100.316054 665.446016,100.316054 C654.5648,100.316054 651.483026,98.1237229 648.253824,96.4553478 C645.024623,94.7869728 640.308076,90.8226808 637.708508,85.7604457 L637.708508,127 L629,127 L629,33 L637.708508,33 L637.708508,48.8412256 C637.708508,62.7319553 634.768001,74.3955204 646.695061,85.7604457 C651.193441,90.0468121 658.500353,92.8101947 663.61429,94.5467629 C668.6032,96.240875 684,94.6163563 684,94.5906949 Z" id="soundreply-copy-3" fill="#FFFF00"></path> <path d="M763.995958,121.9375 C760.547275,124.645847 756.596627,126 752.143897,126 C746.818082,126 742.103497,124.427435 738,121.282258 L741.92886,114.467742 C744.984656,116.564527 748.258673,117.612903 751.751011,117.612903 C754.544881,117.612903 757.076787,116.695574 759.346807,114.860887 C761.616826,113.026201 763.49393,110.361577 764.978173,106.866935 L767.859337,99.7903226 L772.312045,90.4858871 L782.963622,61 L792,61 L772.312045,110.012097 C770.216643,115.254058 767.444641,119.229153 763.995958,121.9375 Z" id="soundreply-copy-3" fill="url(#linearGradient-2)"></path> <polygon id="Path" fill="#1EC8DC" points="716.987974 28.4046858 725.741436 28.4046858 725.741436 100.404686 716.987974 100.404686"></polygon> <path d="M605.970158,65.3189005 L552.223753,69.7431938 C552.831899,76.9762099 555.525073,82.8098943 560.303358,87.2444221 C565.081643,91.6789498 570.989252,93.8961804 578.026363,93.8961804 C582.370258,93.8961804 586.41002,93.121226 590.14577,91.571294 C593.88152,90.021362 597.095955,87.8256579 599.78917,84.9841158 L604.741186,89.8922094 C601.439825,93.4226101 597.465221,96.156477 592.817253,98.093892 C588.169285,100.031307 583.065284,101 577.505098,101 C570.902377,101 565.038206,99.5577238 559.91241,96.6731281 C554.786613,93.7885324 550.76857,89.7630748 547.85816,84.5966348 C544.94775,79.4301947 546.326193,69.7001735 546.326193,63.0699087 C546.326193,56.5257513 605.970158,65.3189005 605.970158,65.3189005 Z" id="Path" fill="url(#linearGradient-4)"></path> <path d="M131.601312,91.5324814 C126.810836,95.4735731 120.670409,97.4440895 113.179847,97.4440895 C108.128072,97.4440895 102.880403,96.5346204 97.43668,94.715655 C91.9929575,92.8966895 87.1807789,90.3415145 83,87.0500532 L90.0550292,75.7465389 C98.1552883,81.809757 105.994131,84.8413206 113.571793,84.8413206 C116.881576,84.8413206 119.494524,84.0834297 121.410714,82.5676251 C123.326905,81.0518206 124.284985,79.1246123 124.284985,76.7859425 C124.284985,73.3212464 119.668778,70.2030668 110.436224,67.4313099 C109.739428,67.1714577 109.216838,66.9982255 108.86844,66.9116081 C94.4099131,63.013825 87.180758,56.5176174 87.180758,47.4227902 C87.180758,41.0131025 89.6848328,35.8810984 94.6930576,32.0266241 C99.7012823,28.1721497 106.211877,26.2449414 114.225036,26.2449414 C122.238196,26.2449414 129.815744,28.5835762 136.957908,33.2609159 L131.470663,44.0447284 C125.809192,40.3201802 119.668765,38.457934 113.049198,38.457934 C109.565216,38.457934 106.734523,39.0859007 104.557034,40.341853 C102.379545,41.5978054 101.290816,43.4817056 101.290816,45.9936102 C101.290816,48.2456627 102.423094,49.8913686 104.687682,50.9307774 C106.255474,51.710334 108.454705,52.4465709 111.285441,53.1395101 C114.116177,53.8324493 116.620252,54.5253781 118.797741,55.2183174 C120.97523,55.9112566 123.087362,56.6908015 125.134202,57.5569755 C127.181042,58.4231495 129.380272,59.635775 131.731961,61.1948882 C136.435337,64.3131146 138.78699,69.1636164 138.78699,75.7465389 C138.78699,82.3294614 136.391788,87.5913896 131.601312,91.5324814 Z M187.388302,84.4515442 C193.74657,84.4515442 198.99424,82.3511037 203.131469,78.1501597 C207.268698,73.9492158 209.337281,68.5140554 209.337281,61.8445154 C209.337281,55.1749755 207.268698,49.7398151 203.131469,45.5388711 C198.99424,41.3379272 193.74657,39.2374867 187.388302,39.2374867 C181.030034,39.2374867 175.782364,41.3379272 171.645135,45.5388711 C167.507906,49.7398151 165.439322,55.1749755 165.439322,61.8445154 C165.439322,68.5140554 167.507906,73.9492158 171.645135,78.1501597 C175.782364,82.3511037 181.030034,84.4515442 187.388302,84.4515442 Z M187.388302,97.4440895 C176.936354,97.4440895 168.226529,94.0010994 161.258564,87.115016 C154.290599,80.2289326 150.806669,71.8055166 150.806669,61.8445154 C150.806669,51.8835143 154.290599,43.4600983 161.258564,36.5740149 C168.226529,29.6879315 176.936354,26.2449414 187.388302,26.2449414 C197.840249,26.2449414 206.550074,29.6879315 213.518039,36.5740149 C220.486004,43.4600983 223.969934,51.8835143 223.969934,61.8445154 C223.969934,71.8055166 220.486004,80.2289326 213.518039,87.115016 C206.550074,94.0010994 197.840249,97.4440895 187.388302,97.4440895 Z M289.16363,64.7028754 L289.16363,27.284345 L303.796283,27.284345 L303.796283,96.4046858 L289.16363,96.4046858 L289.16363,83.8019169 C286.811942,88.0461696 283.567532,91.3808895 279.430302,93.8061768 C275.293073,96.231464 270.829288,97.4440895 266.038812,97.4440895 C258.199851,97.4440895 251.863453,95.0621466 247.029428,90.2981896 C242.195402,85.5342325 239.778426,78.6482524 239.778426,69.6400426 L239.778426,27.284345 L254.411079,27.284345 L254.411079,65.2225772 C254.411079,77.9553352 259.724072,84.3216187 270.350219,84.3216187 C275.401993,84.3216187 279.800455,82.6542588 283.545736,79.3194888 C287.291017,75.9847189 289.16363,71.1125631 289.16363,64.7028754 Z M339.594023,58.9861555 L339.594023,96.4046858 L324.96137,96.4046858 L324.96137,27.284345 L339.594023,27.284345 L339.594023,39.887114 C341.945711,35.6428613 345.190121,32.3081413 349.327351,29.8828541 C353.46458,27.4575669 357.928365,26.2449414 362.718841,26.2449414 C370.557802,26.2449414 376.8942,28.6268842 381.728225,33.3908413 C386.562251,38.1547984 388.979227,45.0407785 388.979227,54.0489883 L388.979227,96.4046858 L374.346574,96.4046858 L374.346574,58.4664537 C374.346574,45.7336957 369.033581,39.3674121 358.407434,39.3674121 C353.35566,39.3674121 348.957198,41.0347721 345.211917,44.3695421 C341.466636,47.704312 339.594023,52.5764678 339.594023,58.9861555 Z M414.717019,87.5697551 C408.184552,80.9868325 404.918367,72.3252223 404.918367,61.5846645 C404.918367,50.8441068 408.27165,42.2691126 414.978316,35.8594249 C421.684983,29.4497372 429.676247,26.2449414 438.952351,26.2449414 C448.228454,26.2449414 455.697129,30.142666 461.358601,37.9382322 L461.358601,0 L475.991254,0 L475.991254,96.4046858 L461.358601,96.4046858 L461.358601,86.0106496 C455.958428,93.632981 448.076036,97.4440895 437.711188,97.4440895 C428.914132,97.4440895 421.249486,94.1526776 414.717019,87.5697551 Z M425.952806,78.3450479 C430.220685,82.5026832 435.228834,84.5814696 440.977405,84.5814696 C446.725976,84.5814696 451.603479,82.4810292 455.610058,78.2800852 C459.616638,74.0791412 461.619898,68.6872889 461.619898,62.1043663 C461.619898,55.5214438 459.616638,50.0213213 455.610058,45.6038339 C451.603479,41.1863464 446.682427,38.9776358 440.846757,38.9776358 C435.011086,38.9776358 430.002936,41.1863464 425.822157,45.6038339 C421.641379,50.0213213 419.55102,55.5430979 419.55102,62.1693291 C419.55102,68.7955603 421.684928,74.1874127 425.952806,78.3450479 Z M517.864158,32.286475 C522.088487,29.5580268 527.16196,28.1505152 533.08473,28.0638978 L533.08473,36.2492013 C525.855467,36.1625839 520.041658,38.2630244 515.64313,42.5505857 C511.244603,46.8381471 508.740528,52.66308 508.130831,60.0255591 L508.130831,96.4046858 L499.377369,96.4046858 L499.377369,28.3237487 L508.130831,28.3237487 L508.130831,44.1746539 C510.395419,38.9776098 513.639829,35.0149231 517.864158,32.286475 Z M598.147777,38.1331203 C603.722149,44.845969 606.291547,53.8756976 605.85605,65.2225772 L548.762573,65.2225772 C549.37227,72.4984389 552.072316,78.3666799 556.862792,82.827476 C561.653267,87.2882722 567.575949,89.5186368 574.631013,89.5186368 C578.985991,89.5186368 583.03606,88.7390919 586.781341,87.1799787 C590.526622,85.6208655 593.749258,83.4121549 596.449344,80.5537806 L601.413994,85.4909478 C598.104211,89.0422613 594.119466,91.7923225 589.459639,93.7412141 C584.799813,95.6901056 579.68279,96.6645367 574.108418,96.6645367 C567.488852,96.6645367 561.60972,95.213717 556.470845,92.3120341 C551.331971,89.4103511 547.303677,85.3610483 544.385842,80.1640043 C541.468007,74.9669602 540.009111,69.0337572 540.009111,62.3642173 C540.009111,55.7812947 541.468007,49.8697458 544.385842,44.629393 C547.303677,39.3890402 551.331971,35.3180834 556.470845,32.4164004 C561.60972,29.5147175 567.401753,28.0638978 573.847121,28.0638978 C584.473267,28.0638978 592.573405,31.4202717 598.147777,38.1331203 Z M598.017128,58.4664537 C597.58163,51.3638268 595.208203,45.7121261 590.896775,41.5111821 C586.585347,37.3102381 580.945735,35.2097977 573.97777,35.2097977 C567.096904,35.2097977 561.34842,37.3318922 556.732143,41.5761448 C552.115866,45.8203975 549.459369,51.4504442 548.762573,58.4664537 L598.017128,58.4664537 Z M677.908801,32.4164004 C682.917026,35.3180834 686.814673,39.3890402 689.601859,44.629393 C692.389045,49.8697458 693.782617,55.8246028 693.782617,62.4941427 C693.782617,69.0770652 692.389045,74.9669602 689.601859,80.1640043 C686.814673,85.3610483 682.9388,89.4103511 677.974125,92.3120341 C673.00945,95.213717 667.348064,96.6645367 660.989796,96.6645367 C654.718628,96.6645367 649.231438,95.2570251 644.528061,92.4419595 C639.824685,89.626894 636.166558,85.7075154 633.553571,80.6837061 L633.553571,121.610224 L624.800109,121.610224 L624.800109,28.3237487 L633.553571,28.3237487 L633.553571,44.0447284 C636.079459,39.0209191 639.715811,35.1015405 644.462737,32.286475 C649.209663,29.4714094 654.675078,28.0638978 660.859147,28.0638978 C667.217415,28.0638978 672.900576,29.5147175 677.908801,32.4164004 Z M672.48688,85.685836 C676.406361,83.3904749 679.4548,80.2073331 681.632289,76.1363152 C683.809778,72.0652974 684.898506,67.4313359 684.898506,62.2342918 C684.898506,57.1238651 683.809778,52.5332117 681.632289,48.4621938 C679.4548,44.391176 676.406361,41.2080342 672.48688,38.9126731 C668.5674,36.6173119 664.168938,35.4696486 659.291363,35.4696486 C654.326688,35.4696486 649.906452,36.6173119 646.030521,38.9126731 C642.154591,41.2080342 639.106152,44.391176 636.885113,48.4621938 C634.664074,52.5332117 633.553571,57.1238651 633.553571,62.2342918 C633.553571,67.4313359 634.6423,72.0652974 636.819789,76.1363152 C638.997278,80.2073331 642.045717,83.3904749 645.965197,85.685836 C649.884677,87.9811971 654.326688,89.1288605 659.291363,89.1288605 C664.168938,89.1288605 668.5674,87.9811971 672.48688,85.685836 Z M712.987974,0 L721.741436,0 L721.741436,96.4046858 L712.987974,96.4046858 L712.987974,0 Z M760.086826,117.972311 C756.646393,120.65745 752.705197,122 748.26312,122 C742.950046,122 738.246741,120.44091 734.153061,117.322684 L738.072522,110.56656 C741.121006,112.645378 744.387191,113.684771 747.871173,113.684771 C750.658359,113.684771 753.184209,112.775302 755.448797,110.956337 C757.713386,109.137371 759.585998,106.49558 761.066691,103.030884 L763.940962,96.0149095 L735.590197,28.3237487 L744.866254,28.3237487 L768.383017,86.7902023 L790.985241,28.3237487 L800,28.3237487 L768.383017,106.149095 C766.292628,111.346139 763.527258,115.287172 760.086826,117.972311 Z" id="soundreply" fill="#000000"></path> <g id="soundreplycon" transform="translate(23.000000, 67.500000) rotate(-270.000000) translate(-23.000000, -67.500000) translate(-17.500000, 44.500000)"> <path d="M29.2171167,16.5153575 L29.2171167,24.6812112 L80.0801304,24.6812112 L80.0801304,18.7104795 L29.2171167,16.5153575 Z M21.4794521,34.1219519 L21.4794521,40.0048787 L63.2412342,40.0048787 L63.2412342,34.1219519 L21.4794521,34.1219519 Z" id="blue" fill="#1EC8DC"></path> <polygon id="Path" fill="#FFFF00" points="4.32670572 0.0958453421 4.32670572 8.261699 76.833555 8.261699 76.833555 0.0958453421"></polygon> <polygon id="magenta" fill="url(#linearGradient-5)" points="4.32670572 2.29096729 3.24451394 8.261699 76.833555 8.261699 76.833555 1.12726439"></polygon> <path d="M24.1505929,18.7104795 L25.2327847,24.6812112 L29.2171167,24.6812112 L29.2171167,18.7104795 L24.1505929,18.7104795 Z M19.8237,35.5468228 L20.9058917,41.75926 L63.2412342,41.75926 L63.2412342,34.1219519 L19.8237,35.5468228 Z" id="yellow" fill="#FFFF00"></path> <path d="M0.162322162,6.48608924 L0.162322162,12.456821 L72.3228701,12.456821 L72.3228701,6.48608924 L0.162322162,6.48608924 Z M21.0684012,22.9056014 L21.0684012,28.8763331 L76.3034697,28.8763331 L76.3034697,22.9056014 L21.0684012,22.9056014 Z M16.7415082,39.4146348 L16.7415082,45.2975616 L59.0768506,45.2975616 L59.0768506,39.4146348 L16.7415082,39.4146348 Z" id="black" fill="#000000"></path> </g> </g> </g> </g> </svg> 